<svg width="26" height="26" viewBox="0 0 26 26" fill="none" xmlns="http://www.w3.org/2000/svg">
<path d="M2.25707 7.00415L3.90625 6.50202L4.67838 4.62154L6.14453 5.78951H7.3548C7.91421 5.78951 8.46463 5.60863 8.9437 5.31481C9.32755 5.07827 9.74558 4.89825 10.1874 4.77922C11.3107 4.4757 12.5656 4.61037 13.6033 5.14967C14.037 5.37432 14.5227 5.49335 14.9854 5.49335L22.2271 5.16383C24.237 5.16378 26 7.04579 26 9.19185V21.3794H23.8584L21.4297 14.5239H13.5095C12.8108 19.0581 11.8965 21.227 11.8522 21.3794H9.55439L7.6992 11.8229L0.850992 11.4778L0 9.23873L2.11798 8.0835L2.25707 7.00415Z" fill="white"/>
<path d="M20.3535 16.0471L21.0679 18.0636C20.9075 18.8101 20.6882 19.7096 20.3795 20.8212L20.224 21.3791H16.8087L17.5705 18.3322L15.8566 16.0471H20.3535ZM6.76117 14.9844L7.70859 19.865L6.24361 21.3791H3.09781L6.76117 14.9844Z" fill="white"/>
</svg>
